<?xml version="1.0" encoding="UTF-8" standalone="no"?>
<!-- Creator: CorelDRAW -->
<svg
   xmlns:dc="http://purl.org/dc/elements/1.1/"
   xmlns:cc="http://web.resource.org/cc/"
   xmlns:rdf="http://www.w3.org/1999/02/22-rdf-syntax-ns#"
   xmlns:svg="http://www.w3.org/2000/svg"
   xmlns="http://www.w3.org/2000/svg"
   xmlns:xlink="http://www.w3.org/1999/xlink"
   xmlns:sodipodi="http://inkscape.sourceforge.net/DTD/sodipodi-0.dtd"
   xmlns:inkscape="http://www.inkscape.org/namespaces/inkscape"
   xml:space="preserve"
   width="400"
   height="190"
   style="shape-rendering:geometricPrecision; text-rendering:geometricPrecision; image-rendering:optimizeQuality; fill-rule:evenodd"
   viewBox="0 0 8000 11314"
   id="svg2"
   sodipodi:version="0.32"
   inkscape:version="0.43"
   sodipodi:docname="petri_dish.svg"
   sodipodi:docbase="C:\LAMigos\Lagosta\ClipArt"
   version="1.0"><metadata
   id="metadata50"><rdf:RDF><cc:Work
       rdf:about=""><dc:format>image/svg+xml</dc:format><dc:type
         rdf:resource="http://purl.org/dc/dcmitype/StillImage" /><dc:title>Petri dish</dc:title><dc:date>2006</dc:date><dc:creator><cc:Agent><dc:title>Carlos Eduardo Amancio</dc:title></cc:Agent></dc:creator><dc:rights><cc:Agent><dc:title>Carlos Eduardo Amancio</dc:title></cc:Agent></dc:rights><dc:subject><rdf:Bag><rdf:li>science</rdf:li><rdf:li>laboratory</rdf:li></rdf:Bag></dc:subject><cc:license
         rdf:resource="http://web.resource.org/cc/PublicDomain" /></cc:Work><cc:License
       rdf:about="http://web.resource.org/cc/PublicDomain"><cc:permits
         rdf:resource="http://web.resource.org/cc/Reproduction" /><cc:permits
         rdf:resource="http://web.resource.org/cc/Distribution" /><cc:permits
         rdf:resource="http://web.resource.org/cc/DerivativeWorks" /></cc:License></rdf:RDF></metadata><sodipodi:namedview
   inkscape:window-height="553"
   inkscape:window-width="800"
   inkscape:pageshadow="2"
   inkscape:pageopacity="0.0"
   borderopacity="1.0"
   bordercolor="#666666"
   pagecolor="#ffffff"
   id="base"
   inkscape:zoom="1.462"
   inkscape:cx="154.45383"
   inkscape:cy="116.38155"
   inkscape:window-x="-4"
   inkscape:window-y="-4"
   inkscape:current-layer="svg2"
   inkscape:document-units="pt" />
 <defs
   id="defs4"><linearGradient
   id="linearGradient14101"><stop
     id="stop14103"
     offset="0"
     style="stop-color:#ffffff;stop-opacity:1;" /><stop
     id="stop14105"
     offset="1"
     style="stop-color:#ffffff;stop-opacity:0;" /></linearGradient><linearGradient
   id="linearGradient14093"><stop
     style="stop-color:#c8c8c8;stop-opacity:1;"
     offset="0"
     id="stop14095" /><stop
     style="stop-color:#c8c8c8;stop-opacity:0;"
     offset="1"
     id="stop14097" /></linearGradient>
  <style
   type="text/css"
   id="style6">
   
    .fil3 {fill:#1F1A17}
    .fil2 {fill:#75C5F0}
    .fil4 {fill:#798992}
    .fil1 {fill:#9AC9DD}
    .fil5 {fill:url(#id0)}
    .fil0 {fill:url(#id1)}
   
  </style>
  <linearGradient
   id="id0"
   gradientUnits="userSpaceOnUse"
   x1="6515"
   y1="9573"
   x2="6496"
   y2="10124">
   <stop
   offset="0"
   style="stop-color:#62A5C0"
   id="stop9" />
   <stop
   offset="0.74902"
   style="stop-color:#8EC4DD"
   id="stop11" />
   <stop
   offset="1"
   style="stop-color:#92C6DD"
   id="stop13" />
  </linearGradient>
  <linearGradient
   id="id1"
   gradientUnits="userSpaceOnUse"
   x1="5229"
   y1="9641"
   x2="7782"
   y2="9641">
   <stop
   offset="0"
   style="stop-color:#DEDEDD"
   id="stop16" />
   <stop
   offset="0.501961"
   style="stop-color:#FEFEFE"
   id="stop18" />
   <stop
   offset="1"
   style="stop-color:#FFFFFF"
   id="stop20" />
  </linearGradient>
 
  
  
  
  
  
  
  
  
 <linearGradient
   inkscape:collect="always"
   xlink:href="#id1"
   id="linearGradient1362"
   gradientUnits="userSpaceOnUse"
   x1="5229"
   y1="9641"
   x2="7782"
   y2="9641"
   gradientTransform="matrix(6.012474,0,0,6.012474,-35138.38,-53181.03)" /><linearGradient
   inkscape:collect="always"
   xlink:href="#id0"
   id="linearGradient1364"
   gradientUnits="userSpaceOnUse"
   x1="6515"
   y1="9573"
   x2="6496"
   y2="10124" /><linearGradient
   inkscape:collect="always"
   xlink:href="#id1"
   id="linearGradient2256"
   gradientUnits="userSpaceOnUse"
   gradientTransform="matrix(6.012474,0,0,6.012474,-35138.38,-53181.03)"
   x1="5229"
   y1="9641"
   x2="7782"
   y2="9641" /><linearGradient
   inkscape:collect="always"
   xlink:href="#id0"
   id="linearGradient2258"
   gradientUnits="userSpaceOnUse"
   x1="6515"
   y1="9573"
   x2="6496"
   y2="10124" /><linearGradient
   inkscape:collect="always"
   xlink:href="#linearGradient14101"
   id="linearGradient14099"
   x1="-6994.8638"
   y1="8800.5605"
   x2="3673.7966"
   y2="5419.9644"
   gradientUnits="userSpaceOnUse" /></defs>
 <g
   id="g2241"
   transform="matrix(1.46506,0,0,1.46506,-1824.721,-2824.694)"><path
     class="fil0"
     d="M 11620.606,6089.9228 L 11620.606,3823.2203 C 11638.641,3787.1454 11650.667,3745.0582 11650.667,3702.9708 C 11650.667,2933.3742 8199.5072,2308.077 3972.7383,2308.077 C -254.03061,2308.077 -3699.178,2933.3742 -3699.178,3702.9708 C -3699.178,3702.9708 -3699.178,3708.9833 -3699.178,3708.9833 L -3699.178,3708.9833 L -3699.178,6089.9228 L 11620.606,6089.9228 z "
     id="path23"
     style="fill:url(#linearGradient2256)" /><path
     class="fil1"
     d="M 11620.606,7839.5527 L 11620.606,6150.0476 C 11638.641,6113.9727 11650.667,6438.6463 11650.667,6029.7981 C 11650.667,5626.9624 8199.5072,4634.9043 3972.7383,4634.9043 C -254.03061,4634.9043 -3699.178,5266.2138 -3699.178,6029.7981 C -3699.178,6029.7981 -3699.178,6035.8105 -3699.178,6035.8105 L -3699.178,6035.8105 L -3699.178,7839.5527 L 11620.606,7839.5527 z "
     id="path25"
     style="fill:#9ac9dd" /><ellipse
     transform="matrix(6.012474,0,0,6.012474,-35135.39,-53181.03)"
     class="fil2"
     cx="6505"
     cy="10155"
     rx="1276"
     ry="232"
     id="ellipse27"
     sodipodi:cx="6505"
     sodipodi:cy="10155"
     sodipodi:rx="1276"
     sodipodi:ry="232"
     style="fill:#75c5f0" /><g
     transform="matrix(6.012474,0,0,6.012474,-35138.38,-53181.03)"
     id="g29">
   <path
   class="fil1"
   d="M 6505,10387 C 7208,10387 7782,10283 7782,10155 C 7782,10027 7208,9923 6505,9923 C 5802,9923 5229,10027 5229,10155 C 5229,10283 5802,10387 6505,10387 z "
   id="path31"
   style="fill:#9ac9dd" />
   <path
   class="fil3"
   d="M 6505,10373 L 6506,10373 L 6506,10400 L 6505,10400 L 6505,10373 z M 6506,10373 C 6856,10373 7174,10347 7405,10306 L 7410,10332 C 7178,10374 6858,10400 6506,10400 L 6506,10373 z M 7405,10306 C 7629,10265 7768,10211 7768,10155 L 7795,10155 C 7795,10226 7648,10289 7410,10332 L 7405,10306 z M 7768,10155 L 7768,10155 L 7795,10155 L 7795,10155 L 7768,10155 z M 7768,10155 L 7768,10155 L 7795,10155 L 7795,10155 L 7768,10155 z M 7768,10155 C 7768,10098 7629,10045 7405,10004 L 7410,9978 C 7648,10021 7795,10083 7795,10155 L 7768,10155 z M 7405,10004 C 7174,9962 6856,9936 6506,9936 L 6506,9909 C 6858,9909 7178,9936 7410,9978 L 7405,10004 z M 6506,9936 L 6505,9936 L 6505,9909 L 6506,9909 L 6506,9936 z M 6505,9936 L 6505,9936 L 6505,9909 L 6505,9909 L 6505,9936 z M 6505,9936 C 6155,9936 5837,9962 5606,10004 L 5601,9978 C 5833,9936 6153,9909 6505,9909 L 6505,9936 z M 5606,10004 C 5382,10045 5243,10098 5243,10155 L 5216,10155 C 5216,10083 5363,10021 5601,9978 L 5606,10004 z M 5243,10155 L 5243,10155 L 5216,10155 L 5216,10155 L 5243,10155 z M 5243,10155 L 5243,10155 L 5216,10155 L 5216,10155 L 5243,10155 z M 5243,10155 C 5243,10211 5382,10265 5606,10306 L 5601,10332 C 5363,10289 5216,10226 5216,10155 L 5243,10155 z M 5606,10306 C 5837,10347 6155,10373 6505,10373 L 6505,10400 C 6153,10400 5833,10374 5601,10332 L 5606,10306 z M 6505,10373 L 6505,10373 L 6505,10400 L 6505,10400 L 6505,10373 z "
   id="path33"
   style="fill:#1f1a17" />
  </g><g
     transform="matrix(6.012474,0,0,6.012474,-35138.38,-53181.03)"
     id="g35">
   <path
   class="fil4"
   d="M 5216,10155 L 5216,10155 L 5243,10155 L 5243,10155 L 5216,10155 z M 5216,10155 C 5216,10083 5363,10021 5601,9978 L 5606,10004 C 5382,10045 5243,10098 5243,10155 L 5216,10155 z M 5601,9978 C 5833,9936 6153,9909 6505,9909 L 6505,9936 C 6155,9936 5837,9962 5606,10004 L 5601,9978 z M 6505,9909 L 6505,9909 L 6505,9936 L 6505,9936 L 6505,9909 z M 6505,9909 L 6506,9909 L 6506,9936 L 6505,9936 L 6505,9909 z M 6506,9909 C 6858,9909 7178,9936 7410,9978 L 7405,10004 C 7174,9962 6856,9936 6506,9936 L 6506,9909 z M 7410,9978 C 7648,10021 7795,10083 7795,10155 L 7768,10155 C 7768,10098 7629,10045 7405,10004 L 7410,9978 z M 7795,10155 L 7795,10155 L 7768,10155 L 7768,10155 L 7795,10155 z "
   id="path37"
   style="fill:#798992" />
  </g><ellipse
     transform="matrix(6.012474,0,0,6.012474,-35135.39,-53181.03)"
     class="fil5"
     cx="6505"
     cy="9848"
     rx="1276"
     ry="232"
     id="ellipse39"
     style="fill:url(#linearGradient2258)"
     sodipodi:cx="6505"
     sodipodi:cy="9848"
     sodipodi:rx="1276"
     sodipodi:ry="232" /><g
     transform="matrix(6.012474,0,0,6.012474,-34976.07,-53181.03)"
     id="g41">
   <path
   sodipodi:nodetypes="ccccccsccccccccscc"
   class="fil3"
   d="M 7768,9462 L 7768,10149 L 7741,10149 L 7741,9462 L 7768,9462 z M 7768,10149 C 7768,10156 7762,10162 7755,10162 C 7747,10162 7741,10156 7741,10149 L 7768,10149 z M 5216,9462 L 5216,10149 L 5189,10149 L 5189,9462 L 5216,9462 z M 5216,10149 C 5216,10156 5210,10162 5202,10162 C 5195,10162 5189,10156 5189,10149 L 5216,10149 z "
   id="path43"
   style="fill:#1f1a17" />
  </g><g
     transform="matrix(6.012474,0,0,6.012474,-35138.38,-53181.03)"
     id="g45">
   <path
   class="fil3"
   d="M 6505,9680 L 6506,9680 L 6506,9707 L 6505,9707 L 6505,9680 z M 6506,9680 C 6856,9680 7174,9654 7405,9612 L 7410,9638 C 7178,9681 6858,9707 6506,9707 L 6506,9680 z M 7405,9612 C 7629,9571 7768,9518 7768,9461 L 7795,9461 C 7795,9533 7648,9595 7410,9638 L 7405,9612 z M 7768,9461 L 7768,9461 L 7795,9461 L 7795,9461 L 7768,9461 z M 7768,9461 L 7768,9461 L 7795,9461 L 7795,9461 L 7768,9461 z M 7768,9461 C 7768,9405 7629,9351 7405,9311 L 7410,9284 C 7648,9327 7795,9390 7795,9461 L 7768,9461 z M 7405,9311 C 7174,9269 6856,9243 6506,9243 L 6506,9216 C 6858,9216 7178,9242 7410,9284 L 7405,9311 z M 6506,9243 L 6505,9243 L 6505,9216 L 6506,9216 L 6506,9243 z M 6505,9243 L 6505,9243 L 6505,9216 L 6505,9216 L 6505,9243 z M 6505,9243 C 6155,9243 5837,9269 5606,9311 L 5601,9284 C 5833,9242 6153,9216 6505,9216 L 6505,9243 z M 5606,9311 C 5382,9351 5243,9405 5243,9461 L 5216,9461 C 5216,9390 5363,9327 5601,9284 L 5606,9311 z M 5243,9461 L 5243,9461 L 5216,9461 L 5216,9461 L 5243,9461 z M 5243,9461 L 5243,9461 L 5216,9461 L 5216,9461 L 5243,9461 z M 5243,9461 C 5243,9518 5382,9571 5606,9612 L 5601,9639 C 5363,9595 5216,9533 5216,9461 L 5243,9461 z M 5606,9612 C 5837,9654 6155,9680 6505,9680 L 6505,9707 C 6153,9707 5833,9681 5601,9639 L 5606,9612 z M 6505,9680 L 6505,9680 L 6505,9707 L 6505,9707 L 6505,9680 z "
   id="path47"
   style="fill:#1f1a17" />
  </g></g>
<path
   style="fill:url(#linearGradient14099);fill-opacity:1.0;fill-rule:evenodd;stroke:#000000;stroke-width:0;stroke-linecap:butt;stroke-linejoin:miter;stroke-miterlimit:4;stroke-dasharray:none;stroke-opacity:1;opacity:0.5"
   d="M -6990.7633,4022.9445 C -6991.3047,4871.8177 -7044.9851,7786.784 -6747.3852,8770.6547 C -6639.0636,9128.768 -2264.321,10706.041 5043.2482,10348.99 C 4494.9467,10107.72 -3995.6269,9891.8356 -5588.6755,8502.4371 C -7131.2619,7157.0499 -6523.4561,5471.9881 -6990.7633,4022.9445 z "
   id="path12345"
   sodipodi:nodetypes="cscsc" /></svg>